<?xml version="1.0" standalone="no"?>
<svg
  width="600"
  height="600"
  viewBox="0 0 600 600"
  xmlns="http://www.w3.org/2000/svg"
>
  <g transform="translate(300,300)">
    <path d="M130,-179.8C173.5,-147.4,217,-116,232.9,-74C248.9,-32,237.1,20.6,223,75C208.8,129.5,192.3,185.7,154.7,209.1C117.2,232.6,58.6,223.3,7.2,213.3C-44.1,203.3,-88.2,192.7,-130.5,170.8C-172.8,148.9,-213.4,115.7,-230.5,72.6C-247.6,29.6,-241.3,-23.4,-224.2,-71.9C-207.2,-120.5,-179.4,-164.6,-140.3,-198.4C-101.1,-232.2,-50.5,-255.6,-3.6,-250.6C43.3,-245.6,86.6,-212.2,130,-179.8Z" fill="#fb6340" />
  </g>
</svg>
  